<svg width="38" height="35" viewBox="0 0 38 35" fill="none" xmlns="http://www.w3.org/2000/svg">
<rect width="38" height="35" rx="16" fill="#0D3F21" fill-opacity="0.05"/>
<path d="M11 21C10.1667 21 9.45833 20.7083 8.875 20.125C8.29167 19.5417 8 18.8333 8 18C8 17.1667 8.29167 16.4583 8.875 15.875C9.45833 15.2917 10.1667 15 11 15V13C11 12.45 11.1958 11.9792 11.5875 11.5875C11.9792 11.1958 12.45 11 13 11H16C16 10.1667 16.2917 9.45833 16.875 8.875C17.4583 8.29167 18.1667 8 19 8C19.8333 8 20.5417 8.29167 21.125 8.875C21.7083 9.45833 22 10.1667 22 11H25C25.55 11 26.0208 11.1958 26.4125 11.5875C26.8042 11.9792 27 12.45 27 13V15C27.8333 15 28.5417 15.2917 29.125 15.875C29.7083 16.4583 30 17.1667 30 18C30 18.8333 29.7083 19.5417 29.125 20.125C28.5417 20.7083 27.8333 21 27 21V25C27 25.55 26.8042 26.0208 26.4125 26.4125C26.0208 26.8042 25.55 27 25 27H13C12.45 27 11.9792 26.8042 11.5875 26.4125C11.1958 26.0208 11 25.55 11 25V21ZM16 19C16.4167 19 16.7708 18.8542 17.0625 18.5625C17.3542 18.2708 17.5 17.9167 17.5 17.5C17.5 17.0833 17.3542 16.7292 17.0625 16.4375C16.7708 16.1458 16.4167 16 16 16C15.5833 16 15.2292 16.1458 14.9375 16.4375C14.6458 16.7292 14.5 17.0833 14.5 17.5C14.5 17.9167 14.6458 18.2708 14.9375 18.5625C15.2292 18.8542 15.5833 19 16 19ZM22 19C22.4167 19 22.7708 18.8542 23.0625 18.5625C23.3542 18.2708 23.5 17.9167 23.5 17.5C23.5 17.0833 23.3542 16.7292 23.0625 16.4375C22.7708 16.1458 22.4167 16 22 16C21.5833 16 21.2292 16.1458 20.9375 16.4375C20.6458 16.7292 20.5 17.0833 20.5 17.5C20.5 17.9167 20.6458 18.2708 20.9375 18.5625C21.2292 18.8542 21.5833 19 22 19ZM15 23H23V21H15V23ZM13 25H25V13H13V25Z" fill="#0D3F21"/>
</svg>
