<svg width="25" height="25" viewBox="0 0 25 25" fill="none" xmlns="http://www.w3.org/2000/svg">
<path d="M22.5 4.98047H17.4609V2.46094C17.4609 1.79688 17.2168 1.2207 16.7285 0.732422C16.2402 0.244141 15.6641 0 15 0H9.96094C9.29688 0 8.7207 0.244141 8.23242 0.732422C7.74414 1.2207 7.5 1.79688 7.5 2.46094V4.98047H2.46094C1.79688 4.98047 1.2207 5.22461 0.732422 5.71289C0.244141 6.20117 0 6.79688 0 7.5V22.5C0 23.1641 0.244141 23.7402 0.732422 24.2285C1.2207 24.7168 1.79688 24.9609 2.46094 24.9609H22.5C23.1641 24.9609 23.7402 24.7168 24.2285 24.2285C24.7168 23.7402 24.9609 23.1641 24.9609 22.5V7.5C24.9609 6.79688 24.7168 6.20117 24.2285 5.71289C23.7402 5.22461 23.1641 4.98047 22.5 4.98047ZM9.96094 2.46094H15V4.98047H9.96094V2.46094ZM17.4609 16.2305H13.7109V19.9805H11.25V16.2305H7.5V13.7109H11.25V9.96094H13.7109V13.7109H17.4609V16.2305Z" fill="#055247"/>
</svg>
