<svg width="16" height="16" viewBox="0 0 16 16" fill="none" xmlns="http://www.w3.org/2000/svg">
<g clip-path="url(#clip0_5324_712)">
<path d="M15.9819 0.897756V15.0982C15.9819 15.5864 15.5864 15.9784 15.1018 15.9784H11.0323V9.79932H13.1062L13.4162 7.39041H11.0287V5.85099C11.0287 5.15254 11.2211 4.6786 12.2225 4.6786H13.4982V2.5227C13.2773 2.49419 12.5218 2.42649 11.6381 2.42649C9.79932 2.42649 8.53785 3.54898 8.53785 5.61223V7.39041H6.45678V9.79932H8.53785V15.9819H0.897756C0.413124 15.9819 0.0175781 15.5864 0.0175781 15.1018V0.897756C0.0175781 0.413124 0.413124 0.0175781 0.897756 0.0175781H15.0982C15.5864 0.0175781 15.9819 0.413124 15.9819 0.897756Z" fill="#FCFCDA"/>
</g>
<defs>
<clipPath id="clip0_5324_712">
<rect width="16" height="16" fill="white"/>
</clipPath>
</defs>
</svg>
