<svg width="40" height="36" viewBox="0 0 40 36" fill="none" xmlns="http://www.w3.org/2000/svg">
<path d="M4 36C2.9 36 1.95833 35.6083 1.175 34.825C0.391667 34.0417 0 33.1 0 32V18H4V32H22V36H4ZM12 28C10.9 28 9.95833 27.6083 9.175 26.825C8.39167 26.0417 8 25.1 8 24V10H12V24H30V28H12ZM20 20C18.9 20 17.9583 19.6083 17.175 18.825C16.3917 18.0417 16 17.1 16 16V4C16 2.9 16.3917 1.95833 17.175 1.175C17.9583 0.391667 18.9 0 20 0H36C37.1 0 38.0417 0.391667 38.825 1.175C39.6083 1.95833 40 2.9 40 4V16C40 17.1 39.6083 18.0417 38.825 18.825C38.0417 19.6083 37.1 20 36 20H20ZM20 16H36V8H20V16Z" fill="#055247"/>
</svg>
