<svg width="16" height="16" viewBox="0 0 16 16" fill="none" xmlns="http://www.w3.org/2000/svg">
<g clip-path="url(#clip0_5324_708)">
<path d="M7.98842 3.90556C5.72205 3.90556 3.89399 5.73362 3.89399 7.99999C3.89399 10.2664 5.72205 12.0944 7.98842 12.0944C10.2548 12.0944 12.0829 10.2664 12.0829 7.99999C12.0829 5.73362 10.2548 3.90556 7.98842 3.90556ZM7.98842 10.6619C6.52383 10.6619 5.3265 9.46814 5.3265 7.99999C5.3265 6.53184 6.52027 5.33808 7.98842 5.33808C9.45657 5.33808 10.6503 6.53184 10.6503 7.99999C10.6503 9.46814 9.45301 10.6619 7.98842 10.6619ZM13.2053 3.73808C13.2053 4.26903 12.7777 4.69309 12.2503 4.69309C12.0615 4.69309 11.8768 4.63708 11.7198 4.53214C11.5627 4.4272 11.4403 4.27805 11.368 4.10354C11.2957 3.92904 11.2768 3.73702 11.3137 3.55176C11.3505 3.36651 11.4415 3.19634 11.575 3.06278C11.7086 2.92922 11.8788 2.83826 12.064 2.80142C12.2493 2.76457 12.4413 2.78348 12.6158 2.85576C12.7903 2.92804 12.9395 3.05045 13.0444 3.2075C13.1493 3.36455 13.2053 3.54919 13.2053 3.73808ZM15.9171 4.70734C15.8566 3.42805 15.5644 2.29487 14.6272 1.36124C13.6935 0.427609 12.5604 0.135404 11.2811 0.0712614C9.96258 -0.00357152 6.01069 -0.00357152 4.6922 0.0712614C3.41648 0.131841 2.2833 0.424045 1.3461 1.35768C0.408909 2.29131 0.120267 3.42449 0.0561247 4.70378C-0.0187082 6.02226 -0.0187082 9.97416 0.0561247 11.2926C0.116704 12.5719 0.408909 13.7051 1.3461 14.6387C2.2833 15.5724 3.41292 15.8646 4.6922 15.9287C6.01069 16.0036 9.96258 16.0036 11.2811 15.9287C12.5604 15.8681 13.6935 15.5759 14.6272 14.6387C15.5608 13.7051 15.853 12.5719 15.9171 11.2926C15.992 9.97416 15.992 6.02583 15.9171 4.70734ZM14.2138 12.7073C14.0783 13.0509 13.8736 13.3629 13.6125 13.624C13.3513 13.8852 13.0393 14.0899 12.6958 14.2254C11.6445 14.6423 9.15011 14.5461 7.98842 14.5461C6.82673 14.5461 4.32873 14.6387 3.28107 14.2254C2.93753 14.0899 2.62551 13.8852 2.36437 13.624C2.10323 13.3629 1.89855 13.0509 1.76303 12.7073C1.3461 11.6561 1.44232 9.16168 1.44232 7.99999C1.44232 6.8383 1.34967 4.3403 1.76303 3.29264C1.89855 2.9491 2.10323 2.63708 2.36437 2.37594C2.62551 2.11481 2.93753 1.91012 3.28107 1.7746C4.33229 1.35768 6.82673 1.45389 7.98842 1.45389C9.15011 1.45389 11.6481 1.36124 12.6958 1.7746C13.0393 1.91012 13.3513 2.11481 13.6125 2.37594C13.8736 2.63708 14.0783 2.9491 14.2138 3.29264C14.6307 4.34387 14.5345 6.8383 14.5345 7.99999C14.5345 9.16168 14.6307 11.6597 14.2138 12.7073Z" fill="#FCFCDA"/>
</g>
<defs>
<clipPath id="clip0_5324_708">
<rect width="16" height="16" fill="white"/>
</clipPath>
</defs>
</svg>
