<svg width="36" height="39" viewBox="0 0 36 39" fill="none" xmlns="http://www.w3.org/2000/svg">
<path d="M0 17.5493C0 7.8571 7.85712 0 17.5494 0C27.2416 0 35.0987 7.85712 35.0987 17.5494V32.5834C35.0987 36.1272 32.2259 39 28.6821 39H6.41659C2.87281 39 0 36.1272 0 32.5834V17.5493Z" fill="#D1FF72"/>
<path fill-rule="evenodd" clip-rule="evenodd" d="M17.9384 0C27.4147 0 35.0971 7.68242 35.0971 17.1587V32.6792C35.097 35.4228 33.3469 37.7557 30.903 38.6282C31.4714 38.1967 31.8182 37.6624 31.9006 37.0686C31.9206 36.9391 31.9506 36.8132 31.9673 36.7924C31.9873 36.769 32.0746 36.7258 32.1614 36.6924C32.4449 36.5889 32.7685 36.3444 32.7685 36.2376C32.7648 36.2257 32.6125 36.2655 32.428 36.3281C32.0209 36.4682 31.6006 36.5184 31.6006 36.4317C31.6007 36.355 31.7071 36.2946 32.034 36.1912C32.3805 36.0813 32.5275 35.9949 32.5578 35.8817C32.5912 35.7415 32.4676 35.6682 31.9804 35.5448C31.4367 35.4046 31.2598 35.3136 30.8661 34.9733C30.6695 34.8034 30.4561 34.6536 30.2994 34.5769L30.0494 34.4566L29.5815 34.4602C29.1814 34.4602 29.0678 34.4728 28.791 34.5495C27.6399 34.8665 26.7126 35.5613 26.0219 36.6257C25.9118 36.7893 25.6707 37.2328 25.4838 37.6031C25.1703 38.2334 25.1436 38.2768 25.1136 38.19C25.047 37.9895 25.2746 37.1087 25.5148 36.6317C25.8252 36.0246 26.4921 35.2777 27.0624 34.9007C28.0599 34.2402 29.3374 33.8765 30.0315 34.0531C30.4119 34.1498 30.5863 34.2592 31.0232 34.6828C31.487 35.1366 31.5407 35.1634 32.1947 35.2936C32.4282 35.3403 32.7049 35.4145 32.8149 35.4578C32.925 35.5045 33.0254 35.5271 33.0387 35.5138C33.0825 35.4621 33.2384 34.9893 33.3483 34.5697C33.8121 32.8014 34.0223 30.8964 34.059 28.1506C34.089 25.9217 34.0266 25.0904 33.5161 20.8766C33.3393 19.4119 33.0319 18.1502 32.7149 17.6063L32.6376 17.473L32.8114 17.4623C33.058 17.4489 33.1849 17.4027 33.2983 17.273C33.485 17.0563 33.459 16.686 33.2459 16.5789C33.1958 16.5522 33.0515 16.5184 32.928 16.5051L32.7018 16.4813V16.342C32.7018 16.2652 32.6847 16.1844 32.6614 16.161C32.6077 16.1079 32.4474 16.112 32.2375 16.1753C32.0309 16.2353 31.9673 16.2042 31.9673 16.0408C31.967 15.7777 31.7668 15.7141 31.4935 15.8908C31.364 15.9771 31.3238 15.9879 31.284 15.9551C31.2575 15.9319 31.2331 15.8951 31.2328 15.8717C31.2328 15.8451 31.1937 15.7808 31.147 15.7241C31.0102 15.5573 30.8892 15.5806 30.6756 15.8075L30.503 15.9944L30.322 15.9741C30.0921 15.9442 29.9325 16.0084 29.8458 16.1551C29.8092 16.2118 29.6956 16.3119 29.5923 16.3753C29.2186 16.6022 29.0811 16.852 29.0577 17.3456C29.0444 17.6425 29.0276 17.7168 28.9375 17.9004C28.7973 18.1804 28.534 18.4308 28.2172 18.5742C27.8769 18.7343 27.7197 18.7644 27.1458 18.7778C26.6087 18.7911 26.4983 18.8105 26.2815 18.9373C26.1516 19.0139 25.9619 19.2437 25.9612 19.3242C25.9612 19.3776 26.072 19.4082 26.5124 19.4849C26.9662 19.5649 27.7864 19.6444 28.4768 19.6778L28.941 19.7016L28.8482 19.779C28.6881 19.9057 28.4873 19.9418 27.947 19.9385C27.46 19.9385 26.9194 19.8752 26.4791 19.7718C26.2422 19.7184 26.0612 19.712 26.0612 19.7587C26.062 19.8258 26.3192 20.0457 26.4958 20.129C26.7193 20.239 27.0401 20.3363 27.897 20.5564C28.6073 20.7398 29.2978 20.9625 29.7149 21.1492C30.9761 21.7131 31.7704 22.872 31.984 24.4636C32.0406 24.8742 32.0473 25.7279 32.0006 26.1315C31.9372 26.6553 31.7805 27.2795 31.6304 27.5898L31.5601 27.7327L31.3732 27.6101C31.2701 27.5435 31.1572 27.4732 31.1268 27.4529C31.0801 27.4262 31.0493 27.436 30.9792 27.4994C30.8425 27.6295 30.7392 27.8634 30.5958 28.3934C30.359 29.2575 30.0356 29.8084 29.4351 30.3756C28.958 30.8227 28.2137 31.3268 27.2493 31.8506C26.7957 32.1008 26.8027 32.0908 26.7493 32.5376C26.7226 32.7478 26.6924 33.0719 26.6791 33.2554C26.6691 33.4389 26.6522 33.6394 26.6422 33.6995L26.6255 33.809L26.5315 33.7388C26.375 33.6287 26.3379 33.4781 26.3112 32.828C26.2912 32.311 26.2815 32.2375 26.2315 32.2375C26.1277 32.2376 25.6143 32.338 25.591 32.3614C25.5775 32.3791 25.5411 32.5291 25.5112 32.7018C25.4512 33.055 25.4042 33.1685 25.2743 33.2685C25.1408 33.372 25.0943 33.3582 25.091 33.2114C25.0876 33.1441 25.0769 32.924 25.0636 32.7209L25.0434 32.3578L24.9267 32.3304C24.8629 32.317 24.6832 32.2842 24.5267 32.2542C24.3699 32.2242 24.1289 32.1502 23.9921 32.0935L23.7421 31.9875L24.3767 31.9673C25.1371 31.9439 25.6375 31.8738 26.3279 31.6971C27.896 31.3 29.1247 30.4729 29.622 29.4887C29.8055 29.1217 29.8815 28.8975 30.0149 28.3006C30.2451 27.2929 30.4026 27.0819 31.0566 26.9184C31.5101 26.8083 31.5237 26.6749 31.097 26.5315C30.8335 26.4414 30.7294 26.3584 30.3125 25.8815C29.8954 25.401 29.3744 25.2701 28.647 25.4636C28.2499 25.5704 27.6567 25.8784 27.4065 26.1053C27.3231 26.1819 27.2664 26.1609 27.1196 26.0041L27.022 25.9041L27.2196 25.7612C27.4931 25.5544 27.8967 25.3178 28.2637 25.141C28.4372 25.0542 28.5879 24.98 28.5946 24.9767C28.5954 24.9645 28.3203 24.6898 27.9803 24.3564C27.0861 23.4856 26.4819 22.7809 25.8446 21.86C24.7769 20.3153 24.0025 19.6348 22.8481 19.2278C22.6878 19.171 22.2205 19.0576 21.8135 18.9742C21.013 18.8141 20.7526 18.7405 20.429 18.5837C20.1321 18.4369 19.9417 18.2563 19.8182 18.0027L19.7123 17.7896L19.7385 17.2456C19.7551 16.9489 19.762 16.6256 19.7587 16.5253C19.7487 16.2685 19.6348 16.0017 19.4647 15.8182C19.2411 15.5779 19.1105 15.5343 18.0194 15.3241C17.0787 15.1439 16.2909 14.7161 15.567 13.9955C15.2501 13.6819 14.8766 13.2283 14.6265 12.8514C14.3396 12.4212 14.3263 12.4574 14.7431 12.4741C15.5339 12.5108 16.0979 12.2509 16.3515 11.7371C16.5383 11.357 16.5285 11.1133 16.3253 11.0264C16.2152 10.9797 16.1379 10.9802 15.6575 11.0169C14.6799 11.0936 13.7251 11.0195 12.6741 10.7859C11.8002 10.5892 11.4427 10.5421 10.7288 10.5288C10.2823 10.5221 9.9589 10.5322 9.74543 10.5621C8.92126 10.6822 8.1063 10.986 7.43229 11.4264L7.16919 11.5967L7.34896 11.7538C7.54248 11.924 7.80953 12.2845 7.95968 12.5848C8.35668 13.3722 8.40632 14.3228 8.12278 15.6372C7.679 17.6726 7.62282 18.3173 7.80968 19.2182C7.97324 20.0189 8.44397 20.8165 9.01446 21.2469L9.18113 21.3766L9.08708 21.3969C8.89641 21.4401 8.36327 21.4264 8.14659 21.373C7.72307 21.2663 7.49622 21.1131 7.22276 20.7397C7.04264 20.4962 6.75199 20.2594 6.47513 20.1325C6.33834 20.0692 6.23144 20.049 6.05131 20.0456C5.92133 20.0423 5.80178 20.0526 5.78821 20.0659C5.77487 20.0792 5.87127 20.2018 6.00131 20.3385C6.25817 20.612 6.32154 20.7527 6.27155 20.9361C6.25155 21.0161 6.2015 21.0697 6.10488 21.123C5.91807 21.2298 5.66755 21.2269 5.12391 21.1135C4.72685 21.0268 4.64982 21.023 4.18937 21.0397C3.91615 21.0497 3.62638 21.0668 3.55245 21.0802C3.35229 21.1102 3.1084 20.9763 2.70482 20.6195C2.52463 20.4593 2.35721 20.3254 2.34052 20.3254C2.17726 20.3263 2.12784 21.0865 2.2679 21.4266C2.30795 21.5267 2.39404 21.6973 2.46076 21.804L2.57743 21.9969L2.41433 22.2707C1.91384 23.1015 1.48618 24.3762 1.28931 25.6041C1.06909 26.9621 1.08904 27.927 1.35598 29.3518C1.44272 29.8054 1.54999 30.1049 1.60003 30.0482C1.61416 30.0305 1.71031 29.9044 1.81313 29.7684C2.18677 29.2647 2.81095 28.8939 3.53817 28.747C3.87517 28.6803 4.54002 28.6972 4.85367 28.7839C5.42059 28.9373 5.86417 29.1843 6.23108 29.5577C6.46131 29.788 6.53524 29.8922 6.66204 30.1625C6.79204 30.4258 6.86843 30.5396 7.09181 30.7697C7.42193 31.1131 7.50956 31.2664 7.50967 31.5197C7.50967 31.8232 7.37264 32.0205 7.05252 32.184L6.9418 32.2375L7.08585 32.4149C7.40937 32.812 7.69647 33.3556 7.87992 33.9126C7.93255 34.0803 7.98167 34.219 7.98944 34.2293C7.99611 34.2359 8.08996 34.1866 8.19659 34.1233C8.30337 34.0566 8.52073 33.9626 8.67755 33.9126C8.95423 33.8259 8.9849 33.8219 9.79543 33.8185C10.8795 33.8152 10.98 33.8124 10.98 33.7757C10.9795 33.7588 10.746 33.652 10.4562 33.5388C9.5219 33.1717 9.12084 32.9418 8.68708 32.528C8.21679 32.0778 7.99368 31.644 8.01683 31.247C8.04018 30.8934 8.22025 30.7363 8.60731 30.7363C9.01097 30.7364 9.48104 30.9 9.91805 31.1935C10.5253 31.6006 11.4872 32.518 11.8609 33.0518C11.9877 33.2319 12.1243 33.3888 12.161 33.4054C12.2012 33.4188 12.3146 33.4421 12.4145 33.4554C12.9283 33.5222 13.4052 33.6928 13.7955 33.9531C14.1358 34.1799 14.3793 34.4367 14.6896 34.8971C14.8164 35.0906 15.0306 35.3639 15.1574 35.5007C15.2875 35.6408 15.4139 35.805 15.4372 35.865C15.5471 36.1285 15.4507 36.4556 15.2039 36.6591C15.1269 36.7225 14.8863 36.8555 14.6729 36.9555C14.4095 37.0789 14.2824 37.1593 14.2824 37.196C14.2828 37.2263 14.3961 37.3732 14.536 37.5198C14.853 37.8568 15.0509 38.1569 15.161 38.4639C15.2443 38.6944 15.2796 38.8703 15.2705 38.996H8.7966C8.83046 38.9019 8.86672 38.8095 8.90613 38.727C9.20969 38.0898 9.83737 37.4656 10.4312 37.2019C10.6046 37.1286 10.6087 37.0947 10.4954 36.8114C10.3019 36.341 10.3713 35.6965 10.6716 35.0959C10.761 34.9205 10.8345 34.7743 10.8324 34.7721C10.829 34.7721 10.7221 34.8424 10.5954 34.9257C9.9181 35.3761 9.1801 35.5668 8.53945 35.4567C8.37601 35.43 8.22898 35.4067 8.21564 35.4067C8.20241 35.4081 8.18945 35.4879 8.18945 35.5805C8.18937 35.6771 8.16895 35.7908 8.14897 35.834C8.12122 35.8811 7.93822 35.994 7.6692 36.1269C7.07861 36.4239 6.68071 36.694 6.33703 37.0376C5.99669 37.378 5.80008 37.652 5.59654 38.0591C5.4627 38.3285 5.35743 38.627 5.29058 38.9115C4.50664 38.7833 3.7719 38.5108 3.11316 38.1222C3.10751 37.6504 3.18244 37.3085 3.42269 36.7079C3.61622 36.214 3.71295 35.9329 3.69293 35.9162C3.68399 35.9125 3.56493 36.0493 3.42626 36.221C3.09614 36.631 2.67569 37.0241 2.33219 37.2543C2.26803 37.2963 2.18981 37.342 2.10838 37.3888C2.01481 37.3052 1.92298 37.2195 1.83456 37.1305C1.8803 37.1054 1.92651 37.0815 1.97028 37.0543C2.78443 36.5538 3.38446 35.7824 3.75484 34.7614C3.90495 34.3411 3.9727 34.0005 3.9727 33.6435C3.97269 33.3504 3.96921 33.3396 3.78579 32.9661C3.6859 32.7597 3.5791 32.5003 3.54888 32.3899C3.46214 32.0496 3.54541 31.786 3.78222 31.6625C3.98576 31.5524 4.48003 31.5617 5.02391 31.6852C5.50776 31.7918 6.33129 31.8352 6.65489 31.7685C6.91846 31.7151 7.05894 31.5853 7.03228 31.4185C7.00559 31.2583 6.90162 31.1318 6.60132 30.8982C6.37782 30.7214 6.33826 30.671 6.28822 30.5208C6.10136 29.9469 5.54678 29.4596 4.82271 29.2327C4.52554 29.1394 3.88497 29.1125 3.58817 29.1792C3.12117 29.286 2.73057 29.507 2.37029 29.8673C1.82337 30.4143 1.67372 30.8421 1.52027 32.3066C1.38684 33.584 1.30618 33.971 0.989305 34.8483C0.882211 35.1426 0.793869 35.3925 0.720252 35.6067C0.261473 34.7313 4.87979e-05 33.736 0 32.6792V17.1587C0 7.68242 7.68242 0 17.1587 0H17.9384ZM13.4884 35.1174C13.3983 35.1107 13.2879 35.1264 13.2312 35.1531C13.0946 35.2131 12.9546 35.3833 12.9276 35.5233C12.8476 35.9571 13.3084 36.2814 13.7122 36.0745C14.1692 35.8443 14.0089 35.1574 13.4884 35.1174ZM6.52513 32.4768C6.34857 32.2803 6.31202 32.274 6.04536 32.384C5.94526 32.424 5.85798 32.4709 5.85131 32.4876C5.84616 32.5092 5.93255 32.6419 6.04179 32.7876C6.29868 33.1312 6.57261 33.6817 6.73942 34.1888C6.9129 34.7126 6.97559 35.04 6.99895 35.4971C7.00893 35.703 7.03257 35.8719 7.05252 35.8733C7.0692 35.8733 7.18621 35.8198 7.30967 35.7531C7.58294 35.6098 7.62701 35.5334 7.62039 35.1769C7.60371 34.316 7.12907 33.1508 6.52513 32.4768ZM7.02752 12.4002C6.71396 11.7298 6.24069 11.4056 5.80369 11.5621C5.52674 11.6622 5.35646 11.8264 4.95605 12.3836C4.47556 13.0542 3.74083 13.8477 3.20363 14.2848C3.03021 14.4249 2.68381 14.6918 2.43695 14.8753C1.78671 15.3555 1.58302 15.5331 1.44289 15.7432L1.31907 15.9301L1.32265 16.2837C1.32265 16.5906 1.33874 16.6815 1.43217 16.9551C1.73922 17.8625 2.45695 18.7095 3.33102 19.1932C3.94486 19.5335 4.33515 19.6534 4.93224 19.6802C5.78977 19.7202 6.04089 19.5667 6.46799 18.7325C6.63484 18.4052 6.91174 17.6419 7.04181 17.1384C7.2453 16.3445 7.3551 15.4034 7.35848 14.436C7.35848 13.445 7.27444 12.9308 7.02752 12.4002Z" fill="#055247"/>
<path fill-rule="evenodd" clip-rule="evenodd" d="M10.7228 19.348C10.863 19.208 11.2165 19.3347 11.8169 19.7349C12.4375 20.1453 13.252 20.8831 13.8693 21.5838C14.0757 21.8234 14.2488 21.9938 14.286 21.9945C14.3193 21.9945 14.4462 21.9709 14.5729 21.9409C15.08 21.8241 15.6775 21.7574 16.3848 21.7373C17.3725 21.7106 18.1837 21.7907 18.9444 21.9909C19.2245 22.0642 19.2544 22.0505 19.4278 21.8004C19.9449 21.0397 20.7693 20.2087 21.4433 19.7682C21.7402 19.5747 22.1744 19.3575 22.2612 19.3575C22.4914 19.3584 22.8913 20.8001 23.0647 22.2445C23.1214 22.7286 23.1215 24.3432 23.0647 24.7469C22.8512 26.2616 22.334 27.4257 21.4933 28.2898C21.3465 28.44 21.1431 28.6207 21.0397 28.6875C20.9397 28.7542 20.8564 28.8308 20.8564 28.8541C20.8564 28.9308 21.056 29.0669 21.1695 29.0672C21.2762 29.0672 21.4268 28.9807 21.5135 28.8672C21.5468 28.824 21.5533 28.8246 21.5766 28.878C21.6663 29.1152 21.2262 29.9359 20.6326 30.6363C20.4855 30.8101 20.0054 31.3073 19.5718 31.7375C18.344 32.952 18.0168 33.3759 17.7099 34.1566C17.5298 34.6102 17.4756 34.9641 17.4956 35.5412C17.5123 36.1015 17.5802 36.3921 17.7837 36.8257C17.9738 37.2326 18.2139 37.5601 18.5742 37.9103C18.9108 38.2369 18.9041 38.2501 18.4873 38.0567C17.9769 37.8199 17.2965 37.3827 16.9027 37.0424C16.8164 36.9694 16.7331 36.9165 16.7158 36.9257C16.6691 36.9591 16.6817 37.4559 16.7384 37.7329C16.836 38.2039 17.0359 38.638 17.3039 38.996H16.8099C16.7262 38.8721 16.6496 38.7422 16.5753 38.5936C16.3485 38.1299 16.2682 37.7861 16.2348 37.1222C16.2081 36.5418 16.1514 36.2882 15.9646 35.9079C15.8311 35.6409 15.7577 35.5436 15.4908 35.2733C15.2841 35.0666 15.0908 34.8267 14.9241 34.5733C14.4036 33.7725 13.7656 33.3017 12.7645 32.978L12.3848 32.8554L12.2038 32.628C11.7968 32.1176 11.544 31.5869 11.3871 30.9197C11.3104 30.5927 11.3 30.4824 11.2967 29.9018C11.2967 29.1579 11.3503 28.8578 11.5705 28.4041L11.6871 28.1565L11.73 28.2541C11.834 28.4878 12.561 29.0406 13.0979 29.2875C13.3782 29.4176 13.499 29.4309 13.5491 29.3375C13.5988 29.2406 13.589 29.0472 13.5324 29.0006C13.5056 28.9772 13.3153 28.8742 13.1086 28.7708C12.1643 28.3003 11.4733 27.6126 11.0062 26.6851C10.2555 25.1936 10.0351 23.055 10.3788 20.6695C10.4589 20.1122 10.6361 19.4348 10.7228 19.348ZM17.5134 26.7839C17.36 26.7438 16.1049 26.7643 16.0182 26.8077C15.8818 26.8777 15.8947 26.9747 16.0813 27.1779C16.4149 27.5449 16.6526 27.8682 16.6527 27.9517C16.6527 28.0785 16.4922 28.2157 16.2753 28.2791C16.1719 28.3092 16.0848 28.3458 16.0848 28.3625C16.0853 28.5024 16.499 28.4987 16.7158 28.3553C16.7925 28.302 16.8594 28.2794 16.8694 28.2994C16.9135 28.3727 17.1567 28.466 17.2932 28.466C17.4429 28.466 17.5956 28.4059 17.5932 28.3494C17.5932 28.3294 17.5034 28.2925 17.3968 28.2625C17.1298 28.1924 17.0559 28.145 16.9991 28.0148C16.9393 27.865 16.9631 27.8082 17.2396 27.4684C17.5833 27.0513 17.6297 26.9773 17.6063 26.8839C17.5962 26.8406 17.5534 26.7972 17.5134 26.7839ZM14.1527 24.7326C14.0326 24.7327 13.8698 24.756 13.7931 24.7826C13.6165 24.846 13.3665 25.0654 13.2729 25.2422C13.2162 25.3488 13.1991 25.4359 13.1991 25.6291C13.2024 26.016 13.3656 26.287 13.7157 26.4672C13.9293 26.5773 14.3305 26.5806 14.5574 26.4672C14.7675 26.367 14.9938 26.1099 15.0539 25.9065C15.1873 25.4527 15.0069 25.0462 14.5765 24.8326C14.4065 24.746 14.3328 24.7293 14.1527 24.7326ZM19.6587 24.7493C19.4452 24.6859 19.3575 24.6854 19.1539 24.7422C18.7037 24.8657 18.4234 25.253 18.4635 25.6934C18.4902 26.0102 18.6669 26.2675 18.967 26.4243C19.1939 26.5445 19.5983 26.5511 19.8052 26.441C20.1387 26.2642 20.3324 25.9638 20.3325 25.6136C20.3325 25.2001 20.0754 24.8729 19.6587 24.7493Z" fill="#055247"/>
<path d="M27.3791 37.5698C27.4024 37.3798 27.4793 37.2995 27.5494 37.3924C27.6128 37.4792 27.6061 37.6433 27.5327 37.9603C27.4493 38.297 27.3692 38.4871 27.1791 38.7805C27.1306 38.8556 27.0776 38.9269 27.0232 38.996H26.6767C26.9624 38.7119 27.1726 38.3633 27.2898 37.9603C27.3298 37.8303 27.3657 37.6567 27.3791 37.5698Z" fill="#055247"/>
<path d="M28.5803 38.6805C28.6376 38.7378 28.6173 38.8261 28.5029 38.996H28.197C28.2511 38.9383 28.3111 38.8782 28.3708 38.8103C28.5137 38.6475 28.5338 38.6341 28.5803 38.6805Z" fill="#055247"/>
<path d="M24.6529 34.74C24.6762 34.74 24.6933 34.7767 24.6933 34.8233C24.6933 34.87 24.6566 34.9833 24.61 35.0733C24.1429 35.9942 24.1059 36.7987 24.4862 37.7329C24.5394 37.866 24.5769 37.983 24.5672 37.9936C24.5572 38.0036 24.4268 38.0103 24.2802 38.0103C23.9466 38.0103 23.6091 37.9232 23.2255 37.7365C22.6849 37.4729 22.2109 36.8785 22.2076 36.4614C22.2076 36.2016 22.2745 36.2215 22.5445 36.5614C22.8581 36.9552 23.232 37.2392 23.6457 37.396C23.76 37.4384 23.8548 37.4711 23.8588 37.4662C23.8588 37.4629 23.8355 37.3429 23.8088 37.1996C23.6487 36.3555 23.8727 35.4979 24.3898 34.9674C24.5124 34.8414 24.6284 34.7413 24.6529 34.74Z" fill="#055247"/>
<path fill-rule="evenodd" clip-rule="evenodd" d="M29.7887 35.9114C30.0189 35.6412 30.3358 35.5571 30.6661 35.6805C30.9463 35.7839 31.1564 36.1212 31.1232 36.4114C31.0765 36.8051 30.7697 37.0756 30.3661 37.0757C29.7388 37.0757 29.3917 36.3752 29.7887 35.9114ZM30.6839 36.1162C30.5673 36.0163 30.4207 36.0159 30.3173 36.1221C30.1438 36.2923 30.2635 36.6162 30.497 36.6162C30.7472 36.6162 30.8739 36.2797 30.6839 36.1162Z" fill="#055247"/>
<path d="M5.78107 30.8709C5.8118 30.868 5.96821 30.9378 6.13107 31.0209C6.47809 31.2044 6.6418 31.322 6.6418 31.3887C6.64158 31.4153 6.61121 31.4351 6.56799 31.4351C6.47031 31.4315 5.80516 31.2556 5.71083 31.2054C5.52064 31.1019 5.56418 30.8809 5.78107 30.8709Z" fill="#055247"/>
<path d="M4.27628 30.378C4.39959 30.2313 4.69911 30.2038 4.87272 30.3268C4.91937 30.3601 4.98361 30.4437 5.02034 30.5137C5.22388 30.9274 4.59994 31.2979 4.27628 30.9542C4.13293 30.8041 4.13297 30.5515 4.27628 30.378Z" fill="#055247"/>
<path d="M23.9921 27.2458C24.2554 27.2524 24.3395 27.2691 24.4826 27.3422C24.5761 27.3923 24.7204 27.5059 24.8005 27.5994C24.8805 27.6927 25.0304 27.8326 25.1338 27.916C25.2873 28.0328 25.3338 28.0973 25.3838 28.2375C25.5073 28.5908 25.7147 28.7438 26.2648 28.8839C26.3815 28.9139 26.5052 28.9541 26.5386 28.9708C26.5953 29.0042 26.5952 29.0076 26.5386 29.1042C26.4385 29.2743 26.0412 29.6322 25.8743 29.7089C25.6508 29.8055 25.3334 29.8251 25.1434 29.7518C24.9435 29.6784 24.8905 29.5713 24.9005 29.278L24.91 29.0506L24.81 29.0411C24.7565 29.0344 24.6066 29.0449 24.4767 29.0649C24.1864 29.1082 24.0058 29.0705 23.8957 28.947C23.7961 28.8302 23.8166 28.6443 23.9398 28.491C24.1733 28.2041 24.1991 28.1634 24.1791 28.1434C24.167 28.1306 24.0115 28.1469 23.8326 28.1768C23.4159 28.2501 23.2854 28.2504 23.1255 28.1672C22.9754 28.0905 22.9255 28.0167 22.9255 27.8601C22.9255 27.6032 23.2052 27.3564 23.6088 27.2529C23.6455 27.2429 23.8188 27.2391 23.9921 27.2458Z" fill="#055247"/>
<path d="M24.4695 25.7648C24.6697 25.7214 25.3676 25.7512 25.6612 25.8112C26.3018 25.948 26.7857 26.1653 27.0993 26.4589C27.3094 26.6523 27.4802 26.9025 27.697 27.3327C27.9639 27.8664 28.2575 28.2006 28.4577 28.2006C28.5011 28.2003 28.5807 28.1701 28.6339 28.1303C28.8141 28.0035 28.984 28.1635 28.8839 28.3637C28.7837 28.5572 28.3866 28.8645 28.0029 29.0446C27.7999 29.1411 27.7496 29.1506 27.4565 29.1506C27.1829 29.1506 27.1187 29.1416 27.0386 29.0815C26.9086 28.9848 26.8993 28.8409 27.016 28.7041L27.1053 28.597L26.7422 28.6208C26.1487 28.6575 25.7922 28.5407 25.7684 28.3041C25.755 28.1573 25.851 28.053 26.1279 27.9196L26.3446 27.816L25.9041 27.797C25.5242 27.7803 25.4407 27.7632 25.2874 27.6898C25.1139 27.6031 24.9934 27.4661 24.9934 27.3494C24.9934 27.2526 25.1837 27.1092 25.4338 27.0124C25.587 26.9558 25.6539 26.9161 25.6243 26.8993C25.5976 26.886 25.3836 26.8653 25.1434 26.8553C24.6532 26.8319 24.4425 26.7823 24.2124 26.6255C23.9356 26.4453 23.8561 26.1375 24.0362 25.9708C24.1396 25.8808 24.3063 25.7982 24.4695 25.7648Z" fill="#055247"/>
<path fill-rule="evenodd" clip-rule="evenodd" d="M7.11919 23.0921C7.61298 23.0021 8.17677 23.1852 8.50374 23.5421C8.76734 23.8324 8.87422 24.1198 8.87756 24.5303C8.88071 25.3274 8.34682 25.9874 7.57634 26.141L7.35967 26.1886L7.33943 26.3684C7.21264 27.526 6.07179 28.063 5.36439 27.2994C5.26442 27.1927 5.151 27.0359 5.11082 26.9458C5.03741 26.7889 4.94391 26.418 4.94057 26.2779C4.94045 26.2148 4.90639 26.1983 4.70366 26.1517C4.36334 26.075 4.06555 25.9217 3.82865 25.6981C3.59174 25.4779 3.46491 25.2672 3.38816 24.9803C3.29811 24.6266 3.34564 24.1429 3.50245 23.8326C3.60581 23.636 3.87854 23.3527 4.07865 23.2457C4.33553 23.1056 4.54295 23.0621 4.89653 23.0755C5.1668 23.0855 5.23393 23.0987 5.46082 23.2088C5.65086 23.2988 5.77146 23.3851 5.92155 23.5386L6.12155 23.7493L6.32513 23.5457C6.58203 23.2821 6.82558 23.1455 7.11919 23.0921ZM5.81797 25.4934C5.57788 25.5567 5.46105 25.7164 5.54416 25.8731C5.63086 26.0332 5.75069 26.0642 6.02393 25.991C6.1507 25.9576 6.19766 25.961 6.33108 26.0077C6.52794 26.0777 6.62149 26.0801 6.68823 26.01C6.82144 25.8766 6.77527 25.6333 6.59537 25.5398C6.47869 25.4798 5.98524 25.4502 5.81797 25.4934ZM7.13586 24.2362C6.94575 24.2862 6.8086 24.4592 6.80847 24.6493C6.80847 24.8394 6.88177 24.9699 7.04181 25.06C7.19857 25.1467 7.30914 25.1505 7.4692 25.0672C7.62268 24.9871 7.70968 24.8426 7.70968 24.6624C7.70938 24.3525 7.44589 24.1563 7.13586 24.2362ZM5.20486 24.2767C5.10476 24.2266 4.86378 24.2157 4.75367 24.2624C4.71694 24.2758 4.64439 24.3369 4.59771 24.3969C4.52768 24.4769 4.50725 24.5365 4.50723 24.6564C4.50723 25.0101 4.82787 25.2206 5.15486 25.0838C5.48464 24.9469 5.51782 24.4404 5.20486 24.2767Z" fill="#055247"/>
<path d="M29.5244 26.241C29.5578 26.2677 29.632 26.3145 29.6887 26.3446C29.8188 26.4113 29.9092 26.5357 29.8792 26.6124C29.8488 26.6891 29.6751 26.7715 29.6018 26.7482C29.4784 26.7114 29.4211 26.6049 29.4244 26.4315C29.4277 26.2221 29.4548 26.1784 29.5244 26.241Z" fill="#055247"/>
<path fill-rule="evenodd" clip-rule="evenodd" d="M30.1923 19.0147C30.4959 18.701 30.9464 18.614 31.3601 18.7908C31.8439 19.001 32.0402 19.6145 31.7768 20.1016C31.4799 20.6454 30.6332 20.7557 30.1827 20.3087C30.0026 20.1253 29.9316 19.9521 29.9315 19.6754C29.9315 19.3985 30.0089 19.2048 30.1923 19.0147ZM31.003 19.3432C30.8831 19.2801 30.8158 19.2806 30.6792 19.3373C30.5526 19.3942 30.4527 19.5875 30.4827 19.7242C30.5395 19.9777 30.8997 20.0845 31.0732 19.898C31.1233 19.848 31.1706 19.7673 31.184 19.7206C31.2138 19.5938 31.123 19.4033 31.003 19.3432Z" fill="#055247"/>
<path d="M16.1015 16.7051C16.4818 16.7151 16.6254 16.7327 16.8622 16.8027C17.0256 16.8527 17.2121 16.9194 17.2789 16.9527C17.4624 17.0461 17.71 17.2757 17.8134 17.4492C17.8969 17.596 17.9027 17.6329 17.9027 17.9765C17.9027 18.3402 17.8995 18.3508 17.7694 18.6111C17.5357 19.0747 17.0585 19.4681 16.5349 19.6349C16.0544 19.7849 15.3676 19.6944 14.9372 19.4242C14.2 18.9539 13.8859 18.2939 14.1158 17.6801C14.1992 17.4599 14.4798 17.1319 14.6967 17.0051C14.8837 16.8984 15.2509 16.7618 15.461 16.7218C15.5581 16.7051 15.8449 16.6984 16.1015 16.7051Z" fill="#055247"/>
<path d="M30.0292 17.5861C30.1759 17.4395 30.3229 17.4163 30.503 17.5063C30.7029 17.6098 30.7864 17.8605 30.6863 18.0539C30.4893 18.4337 29.8987 18.2936 29.8982 17.867C29.8982 17.7369 29.9157 17.6995 30.0292 17.5861Z" fill="#055247"/>
<path d="M10.1954 14.9539C10.3889 14.7671 10.6758 14.7232 10.9359 14.8432C11.2029 14.9666 11.3532 15.2777 11.2764 15.5479C11.0926 16.2082 10.0748 16.1444 10.0181 15.4705C9.99811 15.2439 10.0521 15.0939 10.1954 14.9539Z" fill="#055247"/>
<path d="M13.6384 14.8562C13.2124 14.3459 13.7922 13.6062 14.3991 13.8824C14.6759 14.0058 14.8096 14.2526 14.7765 14.5693C14.7531 14.7628 14.65 14.8969 14.4431 15.0003C14.1528 15.1471 13.8352 15.0898 13.6384 14.8562Z" fill="#055247"/>
</svg>
