<svg width="18" height="20" viewBox="0 0 18 20" fill="none" xmlns="http://www.w3.org/2000/svg">
<path d="M0 20V14C0 13.1667 0.291667 12.4583 0.875 11.875C1.45833 11.2917 2.16667 11 3 11H5C5.83333 11 6.54167 10.7083 7.125 10.125C7.70833 9.54167 8 8.83333 8 8C8 7.71667 7.90417 7.47917 7.7125 7.2875C7.52083 7.09583 7.28333 7 7 7C6.45 7 5.97917 6.80417 5.5875 6.4125C5.19583 6.02083 5 5.55 5 5V0H7V5C7.83333 5 8.54167 5.29167 9.125 5.875C9.70833 6.45833 10 7.16667 10 8C10 9.38333 9.5125 10.5625 8.5375 11.5375C7.5625 12.5125 6.38333 13 5 13H3C2.71667 13 2.47917 13.0958 2.2875 13.2875C2.09583 13.4792 2 13.7167 2 14V20H0ZM6 20H4V18C4 17.1667 4.29167 16.4583 4.875 15.875C5.45833 15.2917 6.16667 15 7 15H11C12.3833 15 13.5625 14.5125 14.5375 13.5375C15.5125 12.5625 16 11.3833 16 10V9C16 7.61667 15.5125 6.4375 14.5375 5.4625C13.5625 4.4875 12.3833 4 11 4C10.45 4 9.97917 3.80417 9.5875 3.4125C9.19583 3.02083 9 2.55 9 2V0H11V2C12.95 2 14.6042 2.67917 15.9625 4.0375C17.3208 5.39583 18 7.05 18 9V10C18 11.95 17.3208 13.6042 15.9625 14.9625C14.6042 16.3208 12.95 17 11 17H7C6.71667 17 6.47917 17.0958 6.2875 17.2875C6.09583 17.4792 6 17.7167 6 18V20ZM2 20V14C2 13.7167 2.09583 13.4792 2.2875 13.2875C2.47917 13.0958 2.71667 13 3 13H5C6.38333 13 7.5625 12.5125 8.5375 11.5375C9.5125 10.5625 10 9.38333 10 8C10 7.16667 9.70833 6.45833 9.125 5.875C8.54167 5.29167 7.83333 5 7 5V0V5C7.83333 5 8.54167 5.29167 9.125 5.875C9.70833 6.45833 10 7.16667 10 8C10 9.38333 9.5125 10.5625 8.5375 11.5375C7.5625 12.5125 6.38333 13 5 13H3C2.71667 13 2.47917 13.0958 2.2875 13.2875C2.09583 13.4792 2 13.7167 2 14V20Z" fill="#94A3B8"/>
</svg>
