<svg width="18" height="20" viewBox="0 0 18 20" fill="none" xmlns="http://www.w3.org/2000/svg">
<path d="M12.9844 3.98438C12.9844 3.04688 13.4922 2.14844 14.5078 1.28906C15.5234 0.429688 16.6875 0 18 0V19.9688H15.5156V12H12.9844V3.98438ZM8.01562 6.98438V0H9.98438V6.98438C9.98438 8.04688 9.625 8.96094 8.90625 9.72656C8.1875 10.4922 7.29688 10.9062 6.23438 10.9688V19.9688H3.75V10.9688C2.6875 10.9062 1.79688 10.4922 1.07812 9.72656C0.359375 8.96094 0 8.04688 0 6.98438V0H2.01562V6.98438H3.98438V0H6V6.98438H8.01562Z" fill="#D1FF72"/>
</svg>
