<svg width="20" height="19" viewBox="0 0 20 19" fill="none" xmlns="http://www.w3.org/2000/svg">
<path d="M15.3281 11.8594C15.3906 11.9219 15.5234 12.0547 15.7266 12.2578C15.9297 12.4609 16.0625 12.5938 16.125 12.6562C16.1875 12.7188 16.3203 12.8594 16.5234 13.0781C16.7266 13.2969 16.8516 13.4453 16.8984 13.5234C16.9453 13.6016 17.0625 13.75 17.25 13.9688C17.4375 14.1875 17.5391 14.3438 17.5547 14.4375C17.5703 14.5312 17.6484 14.7031 17.7891 14.9531C17.9297 15.2031 17.9766 15.3828 17.9297 15.4922C17.8828 15.6016 17.8984 15.7891 17.9766 16.0547C18.0547 16.3203 18.0469 16.5156 17.9531 16.6406C17.6094 17.9531 16.8281 18.7344 15.6094 18.9844C15.3906 19.0156 14.6328 18.9531 13.3359 18.7969C12.0391 18.6406 10.9531 18.5625 10.0781 18.5625H9.89062C9.01562 18.5625 7.92969 18.6406 6.63281 18.7969C5.33594 18.9531 4.57812 19.0156 4.35938 18.9844C3.14062 18.7344 2.35938 17.9531 2.01562 16.6406C1.92188 16.0156 2.03125 15.375 2.34375 14.7188C2.65625 14.0625 2.94531 13.5938 3.21094 13.3125C3.47656 13.0312 3.95312 12.5469 4.64062 11.8594C4.95312 11.5156 5.36719 11.0312 5.88281 10.4062C6.39844 9.78125 6.8125 9.29688 7.125 8.95312C7.6875 8.26562 8.26562 7.82812 8.85938 7.64062C8.98438 7.57812 9.09375 7.54688 9.1875 7.54688C9.375 7.51562 9.64062 7.5 9.98438 7.5C10.3594 7.5 10.625 7.51562 10.7812 7.54688C10.875 7.54688 10.9844 7.57812 11.1094 7.64062C11.7031 7.82812 12.2812 8.26562 12.8438 8.95312C13.125 9.29688 13.5312 9.78125 14.0625 10.4062C14.5938 11.0312 15.0156 11.5156 15.3281 11.8594ZM15.7266 8.27344C15.2422 7.78906 15 7.20312 15 6.51562C15 5.82812 15.2422 5.23438 15.7266 4.73438C16.2109 4.23438 16.7969 3.98438 17.4844 3.98438C18.1719 3.98438 18.7578 4.23438 19.2422 4.73438C19.7266 5.23438 19.9688 5.82812 19.9688 6.51562C19.9688 7.20312 19.7266 7.78906 19.2422 8.27344C18.7578 8.75781 18.1719 9 17.4844 9C16.7969 9 16.2109 8.75781 15.7266 8.27344ZM11.2266 4.26562C10.7422 3.76562 10.5 3.17188 10.5 2.48438C10.5 1.79688 10.7422 1.21094 11.2266 0.726562C11.7109 0.242188 12.2969 0 12.9844 0C13.6719 0 14.2578 0.242188 14.7422 0.726562C15.2266 1.21094 15.4688 1.79688 15.4688 2.48438C15.4688 3.17188 15.2266 3.76562 14.7422 4.26562C14.2578 4.76562 13.6719 5.01562 12.9844 5.01562C12.2969 5.01562 11.7109 4.76562 11.2266 4.26562ZM5.22656 4.26562C4.74219 3.76562 4.5 3.17188 4.5 2.48438C4.5 1.79688 4.74219 1.21094 5.22656 0.726562C5.71094 0.242188 6.29688 0 6.98438 0C7.67188 0 8.25781 0.242188 8.74219 0.726562C9.22656 1.21094 9.46875 1.79688 9.46875 2.48438C9.46875 3.17188 9.22656 3.76562 8.74219 4.26562C8.25781 4.76562 7.67188 5.01562 6.98438 5.01562C6.29688 5.01562 5.71094 4.76562 5.22656 4.26562ZM0.726562 8.27344C0.242188 7.78906 0 7.20312 0 6.51562C0 5.82812 0.242188 5.23438 0.726562 4.73438C1.21094 4.23438 1.79688 3.98438 2.48438 3.98438C3.17188 3.98438 3.75781 4.23438 4.24219 4.73438C4.72656 5.23438 4.96875 5.82812 4.96875 6.51562C4.96875 7.20312 4.72656 7.78906 4.24219 8.27344C3.75781 8.75781 3.17188 9 2.48438 9C1.79688 9 1.21094 8.75781 0.726562 8.27344Z" fill="#D1FF72"/>
</svg>
