<svg width="20" height="23" viewBox="0 0 20 23" fill="none" xmlns="http://www.w3.org/2000/svg">
<path d="M10.0449 14.6855C9.21159 14.6855 8.50326 14.3939 7.91992 13.8105C7.33659 13.2272 7.04492 12.5189 7.04492 11.6855V5.68555C7.04492 4.85221 7.33659 4.14388 7.91992 3.56055C8.50326 2.97721 9.21159 2.68555 10.0449 2.68555C10.8783 2.68555 11.5866 2.97721 12.1699 3.56055C12.7533 4.14388 13.0449 4.85221 13.0449 5.68555V11.6855C13.0449 12.5189 12.7533 13.2272 12.1699 13.8105C11.5866 14.3939 10.8783 14.6855 10.0449 14.6855ZM9.04492 21.6855V18.6105C7.31159 18.3772 5.87826 17.6022 4.74492 16.2855C3.61159 14.9689 3.04492 13.4355 3.04492 11.6855H5.04492C5.04492 13.0689 5.53242 14.248 6.50742 15.223C7.48242 16.198 8.66159 16.6855 10.0449 16.6855C11.4283 16.6855 12.6074 16.198 13.5824 15.223C14.5574 14.248 15.0449 13.0689 15.0449 11.6855H17.0449C17.0449 13.4355 16.4783 14.9689 15.3449 16.2855C14.2116 17.6022 12.7783 18.3772 11.0449 18.6105V21.6855H9.04492ZM10.0449 12.6855C10.3283 12.6855 10.5658 12.5897 10.7574 12.398C10.9491 12.2064 11.0449 11.9689 11.0449 11.6855V5.68555C11.0449 5.40221 10.9491 5.16471 10.7574 4.97305C10.5658 4.78138 10.3283 4.68555 10.0449 4.68555C9.76159 4.68555 9.52409 4.78138 9.33242 4.97305C9.14076 5.16471 9.04492 5.40221 9.04492 5.68555V11.6855C9.04492 11.9689 9.14076 12.2064 9.33242 12.398C9.52409 12.5897 9.76159 12.6855 10.0449 12.6855Z" fill="white"/>
</svg>
