<svg width="56" height="42" viewBox="0 0 56 42" fill="none" xmlns="http://www.w3.org/2000/svg">
<path d="M15.0959 41.2582C11.3227 41.6318 7.96955 40.6449 5.03649 38.2975C2.10343 35.95 0.450106 32.8897 0.0765197 29.1165C-0.243697 25.8823 0.445384 22.9041 2.14376 20.1818C3.84214 17.4596 6.23206 15.59 9.31353 14.5731C9.97244 10.6558 11.7398 7.36146 14.6156 4.69012C17.4914 2.01877 20.8988 0.488099 24.8379 0.0980909C29.6892 -0.382234 33.9717 0.899965 37.6856 3.94469C41.3995 6.98941 43.4966 10.9374 43.977 15.7887C46.8708 15.8371 49.3668 16.8357 51.4648 18.7843C53.5628 20.7329 54.7535 23.1377 55.0367 25.9987C55.3446 29.1085 54.5179 31.8596 52.5566 34.2519C50.5953 36.6443 48.0597 37.9945 44.9499 38.3024L31.2668 39.6571C29.8985 39.7926 28.6789 39.4214 27.6081 38.5435C26.5372 37.6655 25.934 36.5424 25.7985 35.1741L24.53 22.3618L20.9312 26.612L17.1034 23.4739L26.0695 12.5373L37.0061 21.5033L33.868 25.3311L29.5056 21.8691L30.7742 34.6815L44.4573 33.3267C46.1988 33.1543 47.6112 32.4073 48.6946 31.0858C49.778 29.7643 50.2335 28.2328 50.0611 26.4913C49.8887 24.7498 49.1417 23.3374 47.8202 22.254C46.4987 21.1706 44.9672 20.7151 43.2257 20.8875L39.4939 21.257L39.0013 16.2813C38.6605 12.8398 37.1573 10.0263 34.4915 7.84086C31.8257 5.65539 28.772 4.73302 25.3305 5.07376C21.889 5.41451 19.0755 6.91778 16.89 9.58358C14.7046 12.2494 13.7822 15.303 14.1229 18.7445L12.879 18.8677C10.4741 19.1058 8.50581 20.159 6.9741 22.0274C5.4424 23.8957 4.79561 26.0323 5.03372 28.4372C5.27183 30.8422 6.32505 32.8105 8.19339 34.3422C10.0617 35.8739 12.1984 36.5207 14.6033 36.2826L20.8229 35.6668L21.3155 40.6424L15.0959 41.2582Z" fill="#76CDBA"/>
</svg>
