<svg width="45" height="45" viewBox="0 0 45 45" fill="none" xmlns="http://www.w3.org/2000/svg">
<path d="M16.875 45C14.75 45 12.9167 44.2604 11.375 42.7812C9.83333 41.3021 8.95833 39.5208 8.75 37.4375C6.25 37.1042 4.16667 36 2.5 34.125C0.833333 32.25 0 30.0417 0 27.5C0 26.625 0.114583 25.7604 0.34375 24.9062C0.572917 24.0521 0.916667 23.25 1.375 22.5C0.916667 21.75 0.572917 20.9583 0.34375 20.125C0.114583 19.2917 0 18.4167 0 17.5C0 14.9583 0.833333 12.7604 2.5 10.9062C4.16667 9.05208 6.22917 7.95833 8.6875 7.625C8.8125 5.5 9.66667 3.69792 11.25 2.21875C12.8333 0.739583 14.7083 0 16.875 0C17.9583 0 18.9688 0.208333 19.9062 0.625C20.8438 1.04167 21.7083 1.60417 22.5 2.3125C23.25 1.60417 24.1042 1.04167 25.0625 0.625C26.0208 0.208333 27.0417 0 28.125 0C30.2917 0 32.1562 0.729167 33.7188 2.1875C35.2812 3.64583 36.125 5.4375 36.25 7.5625C38.7083 7.89583 40.7812 9 42.4688 10.875C44.1562 12.75 45 14.9583 45 17.5C45 18.4167 44.8854 19.2917 44.6562 20.125C44.4271 20.9583 44.0833 21.75 43.625 22.5C44.0833 23.25 44.4271 24.0521 44.6562 24.9062C44.8854 25.7604 45 26.625 45 27.5C45 30.0833 44.1562 32.3021 42.4688 34.1562C40.7812 36.0104 38.6875 37.1042 36.1875 37.4375C35.9792 39.5208 35.1146 41.3021 33.5938 42.7812C32.0729 44.2604 30.25 45 28.125 45C27.0833 45 26.0729 44.8021 25.0938 44.4062C24.1146 44.0104 23.25 43.4583 22.5 42.75C21.7083 43.4583 20.8333 44.0104 19.875 44.4062C18.9167 44.8021 17.9167 45 16.875 45ZM25 8.125V36.875C25 37.75 25.3021 38.4896 25.9062 39.0938C26.5104 39.6979 27.25 40 28.125 40C28.9583 40 29.6771 39.6667 30.2812 39C30.8854 38.3333 31.2083 37.5833 31.25 36.75C30.375 36.4167 29.5729 35.9688 28.8438 35.4062C28.1146 34.8438 27.4583 34.1667 26.875 33.375C26.4583 32.7917 26.3021 32.1667 26.4062 31.5C26.5104 30.8333 26.8542 30.2917 27.4375 29.875C28.0208 29.4583 28.6458 29.3021 29.3125 29.4062C29.9792 29.5104 30.5208 29.8542 30.9375 30.4375C31.3958 31.1042 31.9792 31.6146 32.6875 31.9688C33.3958 32.3229 34.1667 32.5 35 32.5C36.375 32.5 37.5521 32.0104 38.5312 31.0312C39.5104 30.0521 40 28.875 40 27.5C40 27.2917 39.9896 27.0833 39.9688 26.875C39.9479 26.6667 39.8958 26.4583 39.8125 26.25C39.1042 26.6667 38.3438 26.9792 37.5312 27.1875C36.7188 27.3958 35.875 27.5 35 27.5C34.2917 27.5 33.6979 27.2604 33.2188 26.7812C32.7396 26.3021 32.5 25.7083 32.5 25C32.5 24.2917 32.7396 23.6979 33.2188 23.2188C33.6979 22.7396 34.2917 22.5 35 22.5C36.375 22.5 37.5521 22.0104 38.5312 21.0312C39.5104 20.0521 40 18.875 40 17.5C40 16.125 39.5104 14.9583 38.5312 14C37.5521 13.0417 36.375 12.5417 35 12.5C34.5417 13.25 33.9479 13.9062 33.2188 14.4688C32.4896 15.0312 31.6875 15.4792 30.8125 15.8125C30.1458 16.0625 29.5 16.0417 28.875 15.75C28.25 15.4583 27.8333 14.9792 27.625 14.3125C27.4167 13.6458 27.4479 13 27.7188 12.375C27.9896 11.75 28.4583 11.3333 29.125 11.125C29.75 10.9167 30.2604 10.5417 30.6562 10C31.0521 9.45833 31.25 8.83333 31.25 8.125C31.25 7.25 30.9479 6.51042 30.3438 5.90625C29.7396 5.30208 29 5 28.125 5C27.25 5 26.5104 5.30208 25.9062 5.90625C25.3021 6.51042 25 7.25 25 8.125ZM20 36.875V8.125C20 7.25 19.6979 6.51042 19.0938 5.90625C18.4896 5.30208 17.75 5 16.875 5C16 5 15.2604 5.30208 14.6562 5.90625C14.0521 6.51042 13.75 7.25 13.75 8.125C13.75 8.79167 13.9375 9.40625 14.3125 9.96875C14.6875 10.5312 15.1875 10.9167 15.8125 11.125C16.4792 11.3333 16.9583 11.75 17.25 12.375C17.5417 13 17.5833 13.6458 17.375 14.3125C17.125 14.9792 16.6875 15.4583 16.0625 15.75C15.4375 16.0417 14.7917 16.0625 14.125 15.8125C13.25 15.4792 12.4479 15.0312 11.7188 14.4688C10.9896 13.9062 10.3958 13.25 9.9375 12.5C8.60417 12.5417 7.44792 13.0521 6.46875 14.0312C5.48958 15.0104 5 16.1667 5 17.5C5 18.875 5.48958 20.0521 6.46875 21.0312C7.44792 22.0104 8.625 22.5 10 22.5C10.7083 22.5 11.3021 22.7396 11.7812 23.2188C12.2604 23.6979 12.5 24.2917 12.5 25C12.5 25.7083 12.2604 26.3021 11.7812 26.7812C11.3021 27.2604 10.7083 27.5 10 27.5C9.125 27.5 8.28125 27.3958 7.46875 27.1875C6.65625 26.9792 5.89583 26.6667 5.1875 26.25C5.10417 26.4583 5.05208 26.6667 5.03125 26.875C5.01042 27.0833 5 27.2917 5 27.5C5 28.875 5.48958 30.0521 6.46875 31.0312C7.44792 32.0104 8.625 32.5 10 32.5C10.8333 32.5 11.6042 32.3229 12.3125 31.9688C13.0208 31.6146 13.6042 31.1042 14.0625 30.4375C14.4792 29.8542 15.0208 29.5104 15.6875 29.4062C16.3542 29.3021 16.9792 29.4583 17.5625 29.875C18.1458 30.2917 18.4896 30.8333 18.5938 31.5C18.6979 32.1667 18.5417 32.7917 18.125 33.375C17.5417 34.1667 16.875 34.8542 16.125 35.4375C15.375 36.0208 14.5625 36.4792 13.6875 36.8125C13.7292 37.6458 14.0625 38.3854 14.6875 39.0312C15.3125 39.6771 16.0417 40 16.875 40C17.75 40 18.4896 39.6979 19.0938 39.0938C19.6979 38.4896 20 37.75 20 36.875Z" fill="#76CDBA"/>
</svg>
