<svg width="55" height="55" viewBox="0 0 55 55" fill="none" xmlns="http://www.w3.org/2000/svg">
<path d="M36.5531 35.7879C34.4799 35.5828 32.7895 34.6828 31.4818 33.088C30.1741 31.4932 29.6229 29.6592 29.828 27.586C30.0331 25.5127 30.933 23.8223 32.5279 22.5146C34.1227 21.207 35.9567 20.6557 38.0299 20.8608C40.1031 21.0659 41.7936 21.9659 43.1012 23.5607C44.4089 25.1555 44.9602 26.9895 44.7551 29.0627C44.55 31.1359 43.65 32.8264 42.0552 34.1341C40.4604 35.4417 38.6264 35.993 36.5531 35.7879ZM37.0454 30.8122C37.7503 30.8819 38.3647 30.702 38.8888 30.2723C39.4128 29.8426 39.7097 29.2754 39.7794 28.5705C39.8491 27.8656 39.6692 27.2511 39.2395 26.7271C38.8098 26.2031 38.2426 25.9062 37.5377 25.8365C36.8328 25.7668 36.2183 25.9467 35.6943 26.3764C35.1703 26.806 34.8734 27.3733 34.8037 28.0782C34.7339 28.7831 34.9139 29.3976 35.3436 29.9216C35.7732 30.4456 36.3405 30.7425 37.0454 30.8122ZM19.9031 51.7261L20.6169 44.5113C20.703 43.6406 20.9914 42.8422 21.4819 42.1161C21.9724 41.3901 22.6134 40.8359 23.4049 40.4536C24.8097 39.7971 26.2738 39.2824 27.797 38.9098C29.3203 38.5371 30.8613 38.3023 32.4201 38.2052L35.8148 43.2515L40.1324 38.9682C41.642 39.3688 43.0968 39.9 44.4967 40.5619C45.8967 41.2238 47.2211 42.0143 48.4701 42.9334C49.1713 43.4633 49.7017 44.1334 50.0611 44.9435C50.4206 45.7537 50.5573 46.5941 50.4711 47.4649L49.7574 54.6797L19.9031 51.7261ZM25.3089 47.2365L32.959 47.9934L30.0066 43.5561C29.2397 43.6896 28.4874 43.8873 27.7497 44.1493C27.012 44.4113 26.2722 44.694 25.5304 44.9974L25.3089 47.2365ZM37.686 48.461L45.2739 49.2117L45.4954 46.9726C44.873 46.4923 44.2248 46.0619 43.5506 45.6811C42.8765 45.3004 42.1765 44.9695 41.4507 44.6883L37.686 48.461ZM5.46825 45.2736C4.09993 45.1383 2.97676 44.5352 2.09876 43.4644C1.22075 42.3936 0.849426 41.174 0.984797 39.8057L4.43059 4.97571C4.56597 3.60739 5.16906 2.48422 6.23987 1.60622C7.31068 0.728206 8.53024 0.356886 9.89856 0.492257L44.7285 3.93805C46.0968 4.07343 47.22 4.67652 48.098 5.74733C48.976 6.81814 49.3473 8.0377 49.212 9.40602L47.9813 21.8453C47.4 20.9504 46.7523 20.0908 46.0383 19.2665C45.3243 18.4422 44.4406 17.8523 43.3871 17.4969L44.2363 8.91376L9.4063 5.46797L5.96051 40.2979L16.2851 41.3194C16.1156 41.7632 15.9772 42.21 15.8698 42.66C15.7625 43.1099 15.6863 43.563 15.6412 44.0191L15.4197 46.2582L5.46825 45.2736ZM13.3975 15.9116L30.8125 17.6345C31.9726 16.9119 33.2159 16.4069 34.5423 16.1194C35.8687 15.8319 37.1953 15.7538 38.5222 15.8851L38.7683 13.3972L13.8898 10.9359L13.3975 15.9116ZM12.413 25.8631L24.8523 27.0937C24.9384 26.223 25.1158 25.3822 25.3844 24.5713C25.6531 23.7605 25.9922 22.9776 26.4019 22.2226L12.9052 20.8874L12.413 25.8631ZM11.4285 35.8145L20.0116 36.6636C20.5046 36.3356 21.0246 36.0521 21.5716 35.8131C22.1187 35.5741 22.674 35.3569 23.2376 35.1614L23.5514 31.9894L11.9207 30.8388L11.4285 35.8145ZM5.96051 40.2979L9.4063 5.46797L8.56331 13.9889C8.59613 13.6572 8.62177 13.398 8.64023 13.2114C8.65869 13.0248 8.66792 12.9315 8.66792 12.9315C8.66792 12.9315 8.54793 14.1444 8.30796 16.57C8.06798 18.9957 7.77775 21.9293 7.43728 25.3708C7.32242 26.5318 7.20756 27.6928 7.0927 28.8538C6.97784 30.0148 6.86298 31.1758 6.74812 32.3368C6.7153 32.6685 6.68043 33.021 6.64351 33.3941C6.60659 33.7673 6.57173 34.1198 6.53891 34.4515C6.44456 35.4051 6.34816 36.3796 6.24971 37.3747C6.15126 38.3698 6.05486 39.3443 5.96051 40.2979Z" fill="#76CDBA"/>
</svg>
