<svg width="36" height="42" viewBox="0 0 36 42" fill="none" xmlns="http://www.w3.org/2000/svg">
<path d="M12 4V0H24V4H12V4M16 26H20V14H16V26V26M18 42C15.5333 42 13.2083 41.525 11.025 40.575C8.84167 39.625 6.93333 38.3333 5.3 36.7C3.66667 35.0667 2.375 33.1583 1.425 30.975C0.475 28.7917 0 26.4667 0 24C0 21.5333 0.475 19.2083 1.425 17.025C2.375 14.8417 3.66667 12.9333 5.3 11.3C6.93333 9.66667 8.84167 8.375 11.025 7.425C13.2083 6.475 15.5333 6 18 6C20.0667 6 22.05 6.33333 23.95 7C25.85 7.66667 27.6333 8.63333 29.3 9.9L32.1 7.1L34.9 9.9L32.1 12.7C33.3667 14.3667 34.3333 16.15 35 18.05C35.6667 19.95 36 21.9333 36 24C36 26.4667 35.525 28.7917 34.575 30.975C33.625 33.1583 32.3333 35.0667 30.7 36.7C29.0667 38.3333 27.1583 39.625 24.975 40.575C22.7917 41.525 20.4667 42 18 42V42M18 38C21.8667 38 25.1667 36.6333 27.9 33.9C30.6333 31.1667 32 27.8667 32 24C32 20.1333 30.6333 16.8333 27.9 14.1C25.1667 11.3667 21.8667 10 18 10C14.1333 10 10.8333 11.3667 8.1 14.1C5.36667 16.8333 4 20.1333 4 24C4 27.8667 5.36667 31.1667 8.1 33.9C10.8333 36.6333 14.1333 38 18 38V38M18 24V24V24V24V24V24V24V24V24V24" fill="#D1FF72"/>
</svg>
