<svg width="16" height="13" viewBox="0 0 16 13" fill="none" xmlns="http://www.w3.org/2000/svg">
<g clip-path="url(#clip0_5324_704)">
<path d="M15.6 2C16 3.4 16 6.4 16 6.4C16 6.4 16 9.4 15.6 10.8C15.4 11.6 14.8 12.2 14.1 12.4C12.7 12.8 8 12.8 8 12.8C8 12.8 3.3 12.8 2 12.4C1.2 12.2 0.6 11.6 0.4 10.8C0 9.4 0 6.4 0 6.4C0 6.4 0 3.4 0.4 2C0.6 1.2 1.2 0.6 1.9 0.4C3.3 0 8 0 8 0C8 0 12.7 0 14 0.4C14.8 0.6 15.4 1.2 15.6 2ZM6.4 9.2L11.2 6.4L6.4 3.6V9.2Z" fill="#FCFCDA"/>
</g>
<defs>
<clipPath id="clip0_5324_704">
<rect width="16" height="13" fill="white"/>
</clipPath>
</defs>
</svg>
